<svg width="33" height="32" viewBox="0 0 33 32" fill="none" xmlns="http://www.w3.org/2000/svg">
<path opacity="0.4" d="M24.875 25.1467H23.8617C22.795 25.1467 21.7817 25.56 21.035 26.3067L18.755 28.56C17.715 29.5867 16.0217 29.5867 14.9817 28.56L12.7017 26.3067C11.955 25.56 10.9283 25.1467 9.875 25.1467H8.875C6.66167 25.1467 4.875 23.3734 4.875 21.1867V6.64001C4.875 4.45335 6.66167 2.68005 8.875 2.68005H24.875C27.0883 2.68005 28.875 4.45335 28.875 6.64001V21.1867C28.875 23.3601 27.0883 25.1467 24.875 25.1467Z" fill="white"/>
<path d="M14.715 19.3466H11.1417C10.555 19.3466 10.0083 19.0666 9.66166 18.5866C9.32833 18.1333 9.24833 17.5733 9.40833 17.04C9.87499 15.6133 11.0217 14.8399 12.035 14.1466C13.1017 13.4266 13.7017 12.9733 13.7017 12.2C13.7017 11.5067 13.1417 10.9467 12.4483 10.9467C11.755 10.9467 11.195 11.5067 11.195 12.2C11.195 12.7467 10.7417 13.2 10.195 13.2C9.64834 13.2 9.19501 12.7467 9.19501 12.2C9.19501 10.4133 10.6483 8.94666 12.4483 8.94666C14.2483 8.94666 15.7017 10.4 15.7017 12.2C15.7017 14.08 14.2883 15.0399 13.155 15.8133C12.4483 16.2933 11.7817 16.7466 11.4483 17.3466H14.7017C15.2483 17.3466 15.7017 17.8 15.7017 18.3466C15.7017 18.8933 15.2617 19.3466 14.715 19.3466Z" fill="white"/>
<path d="M22.2617 19.3467C21.715 19.3467 21.2617 18.8933 21.2617 18.3467V17.4267H18.6483C18.6483 17.4267 18.6483 17.4267 18.635 17.4267C17.9817 17.4267 17.3817 17.08 17.0483 16.52C16.715 15.9467 16.715 15.24 17.0483 14.68C17.955 13.12 19.0083 11.3466 19.9683 9.79996C20.395 9.11996 21.2083 8.81336 21.9683 9.02669C22.7283 9.25336 23.2617 9.94666 23.2483 10.7467V15.44H23.5417C24.0883 15.44 24.5417 15.8934 24.5417 16.44C24.5417 16.9867 24.0883 17.44 23.5417 17.44H23.2617V18.36C23.2617 18.9067 22.8217 19.3467 22.2617 19.3467ZM21.2617 11.52C20.475 12.8 19.6617 14.1733 18.9283 15.4267H21.2617V11.52Z" fill="white"/>
</svg>
