<svg width="20" height="21" viewBox="0 0 20 21" fill="none" xmlns="http://www.w3.org/2000/svg">
<path opacity="0.4" d="M17.1833 7.54168C16.3083 3.69168 12.95 1.95834 10 1.95834C10 1.95834 10 1.95834 9.99167 1.95834C7.05 1.95834 3.68334 3.68334 2.80834 7.53334C1.83334 11.8333 4.46667 15.475 6.85 17.7667C7.73334 18.6167 8.86667 19.0417 10 19.0417C11.1333 19.0417 12.2667 18.6167 13.1417 17.7667C15.525 15.475 18.1583 11.8417 17.1833 7.54168Z" fill="#5E6F76"/>
<path d="M10 11.7167C11.4497 11.7167 12.625 10.5414 12.625 9.09168C12.625 7.64193 11.4497 6.46667 10 6.46667C8.55025 6.46667 7.375 7.64193 7.375 9.09168C7.375 10.5414 8.55025 11.7167 10 11.7167Z" fill="#5E6F76"/>
</svg>
