<svg width="33" height="32" viewBox="0 0 33 32" fill="none" xmlns="http://www.w3.org/2000/svg">
<path opacity="0.4" d="M15.2917 26.68C21.9264 26.68 27.305 21.3014 27.305 14.6667C27.305 8.03187 21.9264 2.65332 15.2917 2.65332C8.65688 2.65332 3.27833 8.03187 3.27833 14.6667C3.27833 21.3014 8.65688 26.68 15.2917 26.68Z" fill="white"/>
<path d="M19.2917 13.6666H11.2917C10.745 13.6666 10.2917 13.2133 10.2917 12.6666C10.2917 12.12 10.745 11.6666 11.2917 11.6666H19.2917C19.8383 11.6666 20.2917 12.12 20.2917 12.6666C20.2917 13.2133 19.8383 13.6666 19.2917 13.6666Z" fill="white"/>
<path d="M15.2917 17.6666H11.2917C10.745 17.6666 10.2917 17.2133 10.2917 16.6666C10.2917 16.12 10.745 15.6666 11.2917 15.6666H15.2917C15.8383 15.6666 16.2917 16.12 16.2917 16.6666C16.2917 17.2133 15.8383 17.6666 15.2917 17.6666Z" fill="white"/>
<path d="M29.9451 25.2667C29.5051 24.4533 28.5717 24 27.3184 24C26.3717 24 25.5584 24.3867 25.0784 25.0533C24.5984 25.72 24.4917 26.6133 24.7851 27.5067C25.3584 29.24 26.3584 29.6267 26.9051 29.6933C26.9851 29.7067 27.0651 29.7067 27.1584 29.7067C27.7451 29.7067 28.6517 29.4533 29.5317 28.1333C30.2384 27.1067 30.3717 26.08 29.9451 25.2667Z" fill="white"/>
</svg>
