<svg width="20" height="21" viewBox="0 0 20 21" fill="none" xmlns="http://www.w3.org/2000/svg">
<path d="M16.1083 5.23335L10.8833 2.41668C10.3333 2.11668 9.66666 2.11668 9.11666 2.41668L3.89166 5.23335C3.50833 5.44168 3.27499 5.84168 3.27499 6.30001C3.27499 6.75001 3.50833 7.15835 3.89166 7.36668L9.11666 10.1833C9.39166 10.3333 9.69999 10.4083 9.99999 10.4083C10.3 10.4083 10.6083 10.3333 10.8833 10.1833L16.1083 7.36668C16.4917 7.15835 16.725 6.75835 16.725 6.30001C16.725 5.84168 16.4917 5.44168 16.1083 5.23335Z" fill="#5E6F76"/>
<path opacity="0.4" d="M8.25834 11.1583L3.39167 8.72501C3.01667 8.54168 2.58334 8.55834 2.23334 8.77501C1.87501 9.00001 1.66667 9.37501 1.66667 9.79168V14.3833C1.66667 15.175 2.10834 15.8917 2.81667 16.25L7.67501 18.6833C7.84167 18.7667 8.02501 18.8083 8.20834 18.8083C8.42501 18.8083 8.64167 18.75 8.83334 18.6333C9.19167 18.4167 9.40001 18.0333 9.40001 17.6167V13.025C9.40834 12.225 8.96667 11.5083 8.25834 11.1583Z" fill="#5E6F76"/>
<path opacity="0.4" d="M17.7667 8.775C17.4083 8.55833 16.975 8.53333 16.6083 8.72499L11.75 11.1583C11.0417 11.5167 10.6 12.225 10.6 13.025V17.6167C10.6 18.0333 10.8083 18.4167 11.1667 18.6333C11.3583 18.75 11.575 18.8083 11.7917 18.8083C11.975 18.8083 12.1583 18.7667 12.325 18.6833L17.1833 16.25C17.8917 15.8917 18.3333 15.1833 18.3333 14.3833V9.79166C18.3333 9.37499 18.125 9 17.7667 8.775Z" fill="#5E6F76"/>
</svg>
