<svg width="33" height="32" viewBox="0 0 33 32" fill="none" xmlns="http://www.w3.org/2000/svg">
<path d="M9.70833 7.66663C9.16167 7.66663 8.70833 7.21329 8.70833 6.66663V2.66663C8.70833 2.11996 9.16167 1.66663 9.70833 1.66663C10.255 1.66663 10.7083 2.11996 10.7083 2.66663V6.66663C10.7083 7.21329 10.255 7.66663 9.70833 7.66663Z" fill="white"/>
<path d="M20.375 7.66663C19.8283 7.66663 19.375 7.21329 19.375 6.66663V2.66663C19.375 2.11996 19.8283 1.66663 20.375 1.66663C20.9217 1.66663 21.375 2.11996 21.375 2.66663V6.66663C21.375 7.21329 20.9217 7.66663 20.375 7.66663Z" fill="white"/>
<path opacity="0.4" d="M27.0417 11.3333V22.6666C27.0417 26.6666 25.0417 29.3333 20.375 29.3333H9.70833C5.04167 29.3333 3.04167 26.6666 3.04167 22.6666V11.3333C3.04167 7.33329 5.04167 4.66663 9.70833 4.66663H20.375C25.0417 4.66663 27.0417 7.33329 27.0417 11.3333Z" fill="white"/>
<path d="M17.7083 15.6666H9.70833C9.16167 15.6666 8.70833 15.2133 8.70833 14.6666C8.70833 14.12 9.16167 13.6666 9.70833 13.6666H17.7083C18.255 13.6666 18.7083 14.12 18.7083 14.6666C18.7083 15.2133 18.255 15.6666 17.7083 15.6666Z" fill="white"/>
<path d="M13.7083 22.3334H9.70833C9.16167 22.3334 8.70833 21.88 8.70833 21.3334C8.70833 20.7867 9.16167 20.3334 9.70833 20.3334H13.7083C14.255 20.3334 14.7083 20.7867 14.7083 21.3334C14.7083 21.88 14.255 22.3334 13.7083 22.3334Z" fill="white"/>
<path d="M28.375 18.1733C27.1883 17.2266 25.6817 16.6666 24.0417 16.6666C22.4017 16.6666 20.8683 17.2399 19.6683 18.2133C18.055 19.4799 17.0417 21.4666 17.0417 23.6666C17.0417 24.9733 17.415 26.2266 18.055 27.2666C18.5483 28.08 19.1883 28.7866 19.9483 29.3333C21.095 30.1733 22.5083 30.6666 24.0417 30.6666C25.815 30.6666 27.415 30.0133 28.6417 28.92C29.1883 28.4666 29.655 27.9066 30.0283 27.2666C30.6683 26.2266 31.0417 24.9733 31.0417 23.6666C31.0417 21.44 30.0017 19.4533 28.375 18.1733ZM24.0417 27C24.0417 25.16 22.5483 23.6666 20.7083 23.6666C22.5483 23.6666 24.0417 22.1733 24.0417 20.3333C24.0417 22.1733 25.535 23.6666 27.375 23.6666C25.535 23.6666 24.0417 25.16 24.0417 27Z" fill="white"/>
</svg>
