<svg width="20" height="21" viewBox="0 0 20 21" fill="none" xmlns="http://www.w3.org/2000/svg">
<path opacity="0.4" d="M7.5 2.16666C5.31667 2.16666 3.54167 3.94166 3.54167 6.12499C3.54167 8.26666 5.21667 9.99999 7.4 10.075C7.46667 10.0667 7.53334 10.0667 7.58334 10.075C7.60001 10.075 7.60834 10.075 7.625 10.075C7.63334 10.075 7.63334 10.075 7.64167 10.075C9.775 9.99999 11.45 8.26666 11.4583 6.12499C11.4583 3.94166 9.68334 2.16666 7.5 2.16666Z" fill="#5E6F76"/>
<path d="M11.7333 12.2917C9.40833 10.7417 5.61666 10.7417 3.275 12.2917C2.21666 13 1.63333 13.9583 1.63333 14.9833C1.63333 16.0083 2.21666 16.9583 3.26666 17.6583C4.43333 18.4417 5.96666 18.8333 7.5 18.8333C9.03333 18.8333 10.5667 18.4417 11.7333 17.6583C12.7833 16.95 13.3667 16 13.3667 14.9667C13.3583 13.9417 12.7833 12.9917 11.7333 12.2917Z" fill="#5E6F76"/>
<path opacity="0.4" d="M16.6583 6.61668C16.7917 8.23335 15.6417 9.65001 14.05 9.84168C14.0417 9.84168 14.0417 9.84168 14.0333 9.84168H14.0083C13.9583 9.84168 13.9083 9.84168 13.8667 9.85834C13.0583 9.90001 12.3167 9.64168 11.7583 9.16668C12.6167 8.40001 13.1083 7.25001 13.0083 6.00001C12.95 5.32501 12.7167 4.70835 12.3667 4.18335C12.6833 4.02501 13.05 3.92501 13.425 3.89168C15.0583 3.75001 16.5167 4.96668 16.6583 6.61668Z" fill="#5E6F76"/>
<path d="M18.325 14.325C18.2583 15.1333 17.7417 15.8333 16.875 16.3083C16.0417 16.7667 14.9917 16.9833 13.95 16.9583C14.55 16.4167 14.9 15.7417 14.9667 15.025C15.05 13.9917 14.5583 13 13.575 12.2083C13.0167 11.7667 12.3667 11.4167 11.6583 11.1583C13.5 10.625 15.8167 10.9833 17.2417 12.1333C18.0083 12.75 18.4 13.525 18.325 14.325Z" fill="#5E6F76"/>
</svg>
